<svg xmlns="http://www.w3.org/2000/svg" width="2291.886" height="824.959"><path fill="#F2F2F2" d="M983.768 613.27c-1.26 1.453-3.104 3.15-5.523 5.09-2.424 1.937-5.45 3.755-9.084 5.45-3.634 1.692-7.895 3.125-12.79 4.284-4.894 1.164-10.445 1.744-16.64 1.744-9.79 0-18.226-1.523-25.293-4.58-7.073-3.05-12.892-7.068-17.442-12.06-4.56-4.994-7.922-10.707-10.103-17.152-2.187-6.442-3.27-13.06-3.27-19.842 0-7.848 1.353-14.945 4.07-21.295 2.71-6.344 6.54-11.77 11.48-16.28 4.94-4.505 10.877-7.97 17.806-10.392 6.927-2.423 14.604-3.636 23.038-3.636 5.812 0 10.997.582 15.554 1.744 4.553 1.163 8.52 2.762 11.92 4.797 3.39 2.034 6.224 4.46 8.5 7.27 2.275 2.812 4.144 5.86 5.6 9.152h-10.755c-.68-2.033-1.867-4.043-3.56-6.03-1.7-1.987-3.878-3.757-6.546-5.306-2.664-1.547-5.722-2.813-9.155-3.78-3.44-.968-7.246-1.454-11.41-1.454-6.104 0-11.75 1.115-16.934 3.346-5.187 2.23-9.667 5.33-13.444 9.306-3.78 3.975-6.71 8.696-8.796 14.17-2.086 5.475-3.125 11.506-3.125 18.098 0 6.203.99 12.162 2.98 17.88 1.978 5.722 4.915 10.755 8.792 15.116 3.873 4.362 8.723 7.854 14.533 10.468 5.816 2.615 12.504 3.927 20.062 3.927 13.563 0 25.292-4.652 35.177-13.953l4.358 3.917zm85.47-21.367c0 5.04-.875 9.858-2.62 14.467-1.743 4.604-4.24 8.648-7.483 12.135-3.25 3.488-7.17 6.252-11.77 8.285-4.605 2.035-9.765 3.053-15.48 3.053-5.812 0-11.07-1.043-15.77-3.125-4.7-2.084-8.674-4.87-11.92-8.356-3.247-3.488-5.77-7.533-7.56-12.14-1.795-4.602-2.688-9.375-2.688-14.313 0-5.04.895-9.86 2.688-14.464 1.797-4.604 4.312-8.648 7.562-12.142 3.244-3.483 7.216-6.27 11.92-8.354 4.694-2.084 9.956-3.125 15.77-3.125 5.718 0 10.882 1.04 15.48 3.125 4.604 2.084 8.526 4.87 11.774 8.354 3.246 3.49 5.74 7.54 7.483 12.142 1.745 4.604 2.616 9.424 2.616 14.463l-.003-.007zm-13.812 0c0-6.78-.728-12.283-2.184-16.498-1.45-4.217-3.344-7.484-5.67-9.812-2.325-2.323-4.895-3.898-7.703-4.725-2.813-.822-5.522-1.234-8.14-1.234-2.618 0-5.333.412-8.143 1.234-2.812.824-5.402 2.398-7.775 4.725-2.375 2.326-4.312 5.6-5.814 9.812-1.503 4.215-2.255 9.713-2.255 16.498 0 6.686.75 12.14 2.254 16.354 1.498 4.22 3.44 7.484 5.814 9.812 2.374 2.324 4.966 3.897 7.775 4.723 2.81.825 5.52 1.234 8.142 1.234 2.614 0 5.328-.41 8.14-1.234 2.812-.822 5.38-2.396 7.704-4.725 2.327-2.327 4.22-5.6 5.67-9.813 1.46-4.215 2.186-9.668 2.186-16.354v.003zm81.11 36.195v-47.82c0-.97-.098-2.52-.29-4.65-.19-2.13-.8-4.262-1.812-6.396-1.02-2.127-2.645-3.996-4.87-5.6-2.23-1.6-5.378-2.395-9.447-2.395-2.52 0-4.968.436-7.34 1.31-2.376.874-4.48 2.23-6.323 4.07-1.842 1.84-3.296 4.12-4.358 6.833-1.064 2.708-1.602 5.954-1.602 9.736V628.1h-12.353v-72.68h12.354v9.305h.583l2.324-2.323c3.393-3.396 6.83-5.69 10.318-6.902 3.488-1.21 6.64-1.768 9.446-1.672 6.396 0 11.344 1.09 14.826 3.27 3.49 2.183 6.035 4.744 7.635 7.703 1.6 2.958 2.54 5.963 2.833 9.016.29 3.053.438 5.45.438 7.192v47.098l-12.36-.008zm28.78-66.865v-5.814h12.645v-22.387h12.356v22.385h17.586v5.813h-17.586v48.26c0 1.164.05 2.5.145 4 .1 1.504.392 2.904.872 4.217.484 1.31 1.236 2.398 2.254 3.27 1.02.87 2.447 1.31 4.29 1.31 2.325 0 4.267-.873 5.817-2.617 1.547-1.745 2.81-3.636 3.78-5.67l6.83 6.98c-4.75 4.75-10.13 7.12-16.138 7.12-2.52 0-4.99-.437-7.412-1.31-2.424-.876-4.578-2.204-6.47-4-1.886-1.79-3.415-4.09-4.577-6.9-1.162-2.81-1.742-6.107-1.742-9.886v-44.77l-12.646-.002h-.002zm88.498-7.412c7.076 0 12.56.996 16.438 2.98 3.877 1.988 6.725 4.58 8.516 7.777 1.795 3.197 2.834 6.88 3.125 11.047.29 4.168.438 8.43.438 12.79V628.1h-11.77v-7.12c-2.813 2.712-6.395 4.866-10.755 6.466-4.36 1.6-8.723 2.396-13.084 2.396-4.167 0-7.853-.726-11.05-2.18-3.193-1.454-5.86-3.343-7.992-5.667-2.137-2.326-3.73-4.943-4.8-7.852-1.062-2.907-1.6-5.862-1.6-8.866 0-3.102.585-6.2 1.747-9.306 1.164-3.097 2.908-5.886 5.232-8.353 2.322-2.47 5.182-4.48 8.574-6.033 3.396-1.548 7.272-2.325 11.632-2.325 4.355 0 8.5.85 12.428 2.544 3.926 1.695 7.145 4.092 9.67 7.195v-6.25c0-7.946-1.19-13.86-3.574-17.735-2.385-3.874-6.734-5.812-13.06-5.812-2.726 0-5.108.34-7.15 1.018-2.044.676-3.868 1.62-5.468 2.835-1.61 1.21-3.094 2.713-4.457 4.506-1.358 1.797-2.722 3.807-4.08 6.03l-7.464-7.557c1.36-1.45 2.79-2.906 4.293-4.36 1.5-1.448 3.345-2.76 5.52-3.92 2.188-1.163 4.78-2.107 7.785-2.835 3.004-.727 6.64-1.09 10.908-1.09v-.007zm16.738 45.498c-.484-1.164-1.19-2.52-2.117-4.07-.928-1.547-2.117-3.053-3.574-4.508-1.458-1.452-3.212-2.69-5.253-3.704-2.045-1.018-4.48-1.53-7.295-1.53-2.822 0-5.398.562-7.734 1.673-2.334 1.113-4.305 2.566-5.908 4.36-1.602 1.792-2.844 3.9-3.723 6.32-.875 2.425-1.31 4.94-1.31 7.56 0 3.103.56 5.79 1.68 8.066 1.114 2.28 2.552 4.22 4.304 5.815 1.75 1.603 3.696 2.788 5.835 3.563 2.146.78 4.19 1.162 6.13 1.162 1.853 0 3.726-.336 5.62-1.02 1.896-.672 3.697-1.618 5.396-2.832 1.708-1.21 3.235-2.64 4.6-4.286 1.362-1.645 2.48-3.438 3.356-5.38l-.004-11.19zm82.487 21.004c3.345-1.312 6.71-3.366 10.104-6.177l4.215 5.52c-3.296 2.522-7.34 4.848-12.138 6.98-4.793 2.133-10.396 3.194-16.79 3.194-5.722 0-10.856-.996-15.405-2.98-4.56-1.984-8.457-4.697-11.7-8.142-3.25-3.438-5.743-7.508-7.485-12.213-1.746-4.694-2.615-9.76-2.615-15.188 0-5.136.797-9.98 2.395-14.536 1.604-4.552 3.998-8.524 7.195-11.917 3.197-3.39 7.123-6.078 11.77-8.068 4.65-1.98 10.032-2.98 16.138-2.98 2.91 0 5.936.27 9.084.8 3.145.538 6.103 1.505 8.864 2.91 2.764 1.406 5.21 3.25 7.342 5.52 2.13 2.28 3.682 5.165 4.648 8.65h-10.025c-1.067-3.394-3.25-6.25-6.546-8.575-3.297-2.326-7.17-3.488-11.627-3.488-2.713 0-5.57.56-8.576 1.67-3.005 1.115-5.737 2.908-8.214 5.382-2.47 2.47-4.523 5.77-6.174 9.885-1.648 4.12-2.473 9.135-2.473 15.04 0 5.72.75 10.538 2.253 14.464 1.498 3.926 3.512 7.074 6.033 9.45 2.518 2.376 5.395 4.095 8.645 5.16 3.247 1.064 6.614 1.6 10.105 1.6 3.97 0 7.63-.655 10.97-1.964l.004.002zm24.346-59.087v-5.814h12.645v-22.385h12.356v22.385h17.588v5.813h-17.588v48.258c0 1.166.05 2.5.145 4 .097 1.506.388 2.906.874 4.22.488 1.31 1.234 2.397 2.254 3.268 1.018.872 2.445 1.31 4.29 1.31 2.323 0 4.26-.872 5.813-2.616 1.55-1.745 2.81-3.636 3.78-5.67l6.83 6.98c-4.746 4.75-10.127 7.12-16.135 7.12-2.52 0-4.992-.437-7.414-1.31-2.42-.876-4.577-2.204-6.466-4-1.887-1.79-3.414-4.09-4.574-6.9-1.162-2.81-1.748-6.107-1.748-9.886v-44.77l-12.646-.002z"/></svg>